<mxfile host="app.diagrams.net" modified="2020-12-02T01:27:49.543Z" agent="5.0 (Macintosh; Intel Mac OS X 10_15_7) AppleWebKit/537.36 (KHTML, like Gecko) Chrome/86.0.4240.111 Safari/537.36" etag="QUyN1CObfFLOXyDguUoL" version="13.10.5" type="github">
  <diagram id="-N9uZjTop2ZxeEDGDAec" name="Page-1">
    <mxGraphModel dx="1426" dy="1816" grid="1" gridSize="10" guides="1" tooltips="1" connect="1" arrows="1" fold="1" page="1" pageScale="1" pageWidth="850" pageHeight="1100" math="0" shadow="0">
      <root>
        <mxCell id="0" />
        <mxCell id="1" parent="0" />
        <mxCell id="223" value="" style="endArrow=classic;html=1;exitX=0.5;exitY=1;exitDx=0;exitDy=0;entryX=0.5;entryY=0;entryDx=0;entryDy=0;fontSize=14;" parent="1" source="224" edge="1" target="229">
          <mxGeometry width="50" height="50" relative="1" as="geometry">
            <mxPoint x="417" y="94" as="sourcePoint" />
            <mxPoint x="417" y="114" as="targetPoint" />
          </mxGeometry>
        </mxCell>
        <mxCell id="224" value="&lt;font face=&quot;helvetica&quot; style=&quot;font-size: 14px;&quot;&gt;1.打开App&lt;/font&gt;" style="rounded=1;whiteSpace=wrap;html=1;fillColor=#006EFF;strokeColor=#006EFF;fontSize=14;" parent="1" vertex="1">
          <mxGeometry x="357" y="-6" width="120" height="60" as="geometry" />
        </mxCell>
        <mxCell id="225" style="edgeStyle=orthogonalEdgeStyle;rounded=0;orthogonalLoop=1;jettySize=auto;html=1;exitX=0.5;exitY=1;exitDx=0;exitDy=0;entryX=0.5;entryY=0;entryDx=0;entryDy=0;fontSize=14;" parent="1" source="226" target="233" edge="1">
          <mxGeometry relative="1" as="geometry">
            <mxPoint x="237" y="304" as="targetPoint" />
            <Array as="points">
              <mxPoint x="417" y="294" />
              <mxPoint x="237" y="294" />
            </Array>
          </mxGeometry>
        </mxCell>
        <mxCell id="226" value="&lt;font face=&quot;helvetica&quot; style=&quot;font-size: 14px;&quot;&gt;&lt;font color=&quot;#ea6b66&quot; style=&quot;font-size: 14px;&quot;&gt;2.调用&lt;br style=&quot;font-size: 14px;&quot;&gt;registerPush&lt;/font&gt;&lt;br style=&quot;font-size: 14px;&quot;&gt;&lt;/font&gt;" style="rounded=0;whiteSpace=wrap;html=1;fontSize=14;fillColor=#00A4FF;strokeColor=#00A4FF;" parent="1" vertex="1">
          <mxGeometry x="357" y="214" width="120" height="60" as="geometry" />
        </mxCell>
        <mxCell id="227" value="是" style="text;html=1;strokeColor=none;fillColor=none;align=center;verticalAlign=middle;whiteSpace=wrap;rounded=0;fontSize=14;" parent="1" vertex="1">
          <mxGeometry x="427" y="184" width="40" height="20" as="geometry" />
        </mxCell>
        <mxCell id="228" style="edgeStyle=orthogonalEdgeStyle;rounded=0;orthogonalLoop=1;jettySize=auto;html=1;exitX=0;exitY=0.5;exitDx=0;exitDy=0;entryX=1;entryY=0.5;entryDx=0;entryDy=0;fontSize=14;" parent="1" source="229" target="245" edge="1">
          <mxGeometry relative="1" as="geometry">
            <mxPoint x="287" y="134" as="targetPoint" />
          </mxGeometry>
        </mxCell>
        <mxCell id="229" value="需要TPNS&lt;br&gt;Push功能" style="rhombus;whiteSpace=wrap;html=1;fontColor=#333333;fontSize=14;fillColor=#FF7200;strokeColor=#FF7200;" parent="1" vertex="1">
          <mxGeometry x="337" y="84" width="160" height="70" as="geometry" />
        </mxCell>
        <mxCell id="230" value="" style="edgeStyle=orthogonalEdgeStyle;rounded=0;orthogonalLoop=1;jettySize=auto;html=1;exitX=0.5;exitY=1;exitDx=0;exitDy=0;fontSize=14;" parent="1" source="229" edge="1">
          <mxGeometry relative="1" as="geometry">
            <mxPoint x="427" y="284" as="sourcePoint" />
            <mxPoint x="417" y="214" as="targetPoint" />
          </mxGeometry>
        </mxCell>
        <mxCell id="231" style="edgeStyle=orthogonalEdgeStyle;rounded=0;orthogonalLoop=1;jettySize=auto;html=1;entryX=0.5;entryY=0;entryDx=0;entryDy=0;fontSize=14;" parent="1" source="233" target="236" edge="1">
          <mxGeometry relative="1" as="geometry">
            <mxPoint x="237" y="430" as="targetPoint" />
          </mxGeometry>
        </mxCell>
        <mxCell id="232" style="edgeStyle=orthogonalEdgeStyle;rounded=0;orthogonalLoop=1;jettySize=auto;html=1;exitX=1;exitY=0.5;exitDx=0;exitDy=0;entryX=0.575;entryY=-0.033;entryDx=0;entryDy=0;entryPerimeter=0;fontSize=14;" parent="1" source="233" target="257" edge="1">
          <mxGeometry relative="1" as="geometry" />
        </mxCell>
        <mxCell id="233" value="是否开启厂商推送" style="rhombus;whiteSpace=wrap;html=1;fontColor=#333333;fontSize=14;fillColor=#FF7200;strokeColor=#FF7200;" parent="1" vertex="1">
          <mxGeometry x="157" y="320" width="160" height="90" as="geometry" />
        </mxCell>
        <mxCell id="234" value="是" style="text;html=1;strokeColor=none;fillColor=none;align=center;verticalAlign=middle;whiteSpace=wrap;rounded=0;fontSize=14;" parent="1" vertex="1">
          <mxGeometry x="247" y="400" width="40" height="20" as="geometry" />
        </mxCell>
        <mxCell id="235" style="edgeStyle=orthogonalEdgeStyle;rounded=0;orthogonalLoop=1;jettySize=auto;html=1;exitX=0.5;exitY=1;exitDx=0;exitDy=0;entryX=0.5;entryY=0;entryDx=0;entryDy=0;fontSize=14;" parent="1" source="236" target="252" edge="1">
          <mxGeometry relative="1" as="geometry" />
        </mxCell>
        <mxCell id="236" value="3 向厂商请求 Token" style="rounded=0;whiteSpace=wrap;html=1;fontColor=#333333;fontSize=14;fillColor=#00A4FF;strokeColor=#00A4FF;" parent="1" vertex="1">
          <mxGeometry x="177" y="450" width="120" height="60" as="geometry" />
        </mxCell>
        <mxCell id="237" style="edgeStyle=orthogonalEdgeStyle;rounded=0;orthogonalLoop=1;jettySize=auto;html=1;exitX=0.592;exitY=0.983;exitDx=0;exitDy=0;entryX=0.5;entryY=0;entryDx=0;entryDy=0;exitPerimeter=0;fontSize=14;" parent="1" source="257" target="239" edge="1">
          <mxGeometry relative="1" as="geometry">
            <mxPoint x="518" y="820" as="sourcePoint" />
          </mxGeometry>
        </mxCell>
        <mxCell id="238" style="edgeStyle=orthogonalEdgeStyle;rounded=0;orthogonalLoop=1;jettySize=auto;html=1;exitX=0.5;exitY=1;exitDx=0;exitDy=0;entryX=0.5;entryY=0;entryDx=0;entryDy=0;fontSize=14;" parent="1" source="239" target="240" edge="1">
          <mxGeometry relative="1" as="geometry">
            <Array as="points">
              <mxPoint x="332" y="930" />
              <mxPoint x="212" y="930" />
            </Array>
          </mxGeometry>
        </mxCell>
        <mxCell id="239" value="是否注册成功" style="rhombus;whiteSpace=wrap;html=1;fontColor=#333333;fontSize=14;fillColor=#FF7200;strokeColor=#FF7200;" parent="1" vertex="1">
          <mxGeometry x="292" y="860" width="140" height="60" as="geometry" />
        </mxCell>
        <mxCell id="240" value="&lt;font color=&quot;#ea6b66&quot; style=&quot;font-size: 14px;&quot;&gt;6.成功回调: &lt;br style=&quot;font-size: 14px;&quot;&gt;得到TPNS Token&lt;/font&gt;" style="rounded=1;whiteSpace=wrap;html=1;fontSize=14;fillColor=#006EFF;strokeColor=#006EFF;" parent="1" vertex="1">
          <mxGeometry x="192" y="950" width="120" height="60" as="geometry" />
        </mxCell>
        <mxCell id="241" style="edgeStyle=orthogonalEdgeStyle;rounded=0;orthogonalLoop=1;jettySize=auto;html=1;exitX=1;exitY=0.5;exitDx=0;exitDy=0;entryX=0;entryY=0.5;entryDx=0;entryDy=0;fontSize=14;" parent="1" source="242" target="244" edge="1">
          <mxGeometry relative="1" as="geometry" />
        </mxCell>
        <mxCell id="242" value="&lt;font color=&quot;#ea6b66&quot; style=&quot;font-size: 14px;&quot;&gt;7.失败回调: &lt;br style=&quot;font-size: 14px;&quot;&gt;得到错误码和error对象&lt;/font&gt;" style="rounded=1;whiteSpace=wrap;html=1;fontSize=14;fillColor=#006EFF;strokeColor=#006EFF;" parent="1" vertex="1">
          <mxGeometry x="392" y="950" width="120" height="60" as="geometry" />
        </mxCell>
        <mxCell id="243" style="edgeStyle=orthogonalEdgeStyle;rounded=0;orthogonalLoop=1;jettySize=auto;html=1;exitX=0.5;exitY=0;exitDx=0;exitDy=0;entryX=1;entryY=0.5;entryDx=0;entryDy=0;fontSize=14;" parent="1" source="244" target="229" edge="1">
          <mxGeometry relative="1" as="geometry" />
        </mxCell>
        <mxCell id="244" value="8.下次打开App进程，再次发起注册" style="rounded=0;whiteSpace=wrap;html=1;fontColor=#333333;fontSize=14;fillColor=#00A4FF;strokeColor=#00A4FF;" parent="1" vertex="1">
          <mxGeometry x="640" y="950" width="120" height="60" as="geometry" />
        </mxCell>
        <mxCell id="245" value="&lt;font face=&quot;helvetica&quot; style=&quot;font-size: 14px;&quot;&gt;流程结束&lt;br style=&quot;font-size: 14px;&quot;&gt;&lt;/font&gt;" style="rounded=1;whiteSpace=wrap;html=1;fillColor=#006EFF;strokeColor=#006EFF;fontSize=14;" parent="1" vertex="1">
          <mxGeometry x="160" y="89" width="120" height="60" as="geometry" />
        </mxCell>
        <mxCell id="246" value="否" style="text;html=1;strokeColor=none;fillColor=none;align=center;verticalAlign=middle;whiteSpace=wrap;rounded=0;fontSize=14;" parent="1" vertex="1">
          <mxGeometry x="292" y="100" width="40" height="20" as="geometry" />
        </mxCell>
        <mxCell id="247" value="是" style="text;html=1;strokeColor=none;fillColor=none;align=center;verticalAlign=middle;whiteSpace=wrap;rounded=0;fontSize=14;" parent="1" vertex="1">
          <mxGeometry x="280" y="910" width="40" height="20" as="geometry" />
        </mxCell>
        <mxCell id="248" style="edgeStyle=orthogonalEdgeStyle;rounded=0;orthogonalLoop=1;jettySize=auto;html=1;entryX=0.5;entryY=0;entryDx=0;entryDy=0;exitX=0.5;exitY=1;exitDx=0;exitDy=0;fontSize=14;" parent="1" source="239" target="242" edge="1">
          <mxGeometry relative="1" as="geometry">
            <Array as="points">
              <mxPoint x="362" y="930" />
              <mxPoint x="452" y="930" />
            </Array>
          </mxGeometry>
        </mxCell>
        <mxCell id="249" value="否" style="text;html=1;strokeColor=none;fillColor=none;align=center;verticalAlign=middle;whiteSpace=wrap;rounded=0;fontSize=14;" parent="1" vertex="1">
          <mxGeometry x="392" y="910" width="40" height="20" as="geometry" />
        </mxCell>
        <mxCell id="250" style="edgeStyle=orthogonalEdgeStyle;rounded=0;orthogonalLoop=1;jettySize=auto;html=1;exitX=0.5;exitY=1;exitDx=0;exitDy=0;fontSize=14;" parent="1" source="252" target="254" edge="1">
          <mxGeometry relative="1" as="geometry" />
        </mxCell>
        <mxCell id="251" style="edgeStyle=orthogonalEdgeStyle;rounded=0;orthogonalLoop=1;jettySize=auto;html=1;exitX=1;exitY=0.5;exitDx=0;exitDy=0;entryX=0.379;entryY=-0.048;entryDx=0;entryDy=0;entryPerimeter=0;fontSize=14;" parent="1" source="252" target="257" edge="1">
          <mxGeometry relative="1" as="geometry">
            <mxPoint x="600" y="590.2068965517242" as="targetPoint" />
          </mxGeometry>
        </mxCell>
        <mxCell id="252" value="注册厂商是否成功" style="rhombus;whiteSpace=wrap;html=1;fontColor=#333333;fontSize=14;fillColor=#FF7200;strokeColor=#FF7200;" parent="1" vertex="1">
          <mxGeometry x="167" y="560" width="140" height="60" as="geometry" />
        </mxCell>
        <mxCell id="253" style="edgeStyle=orthogonalEdgeStyle;rounded=0;orthogonalLoop=1;jettySize=auto;html=1;exitX=0.5;exitY=1;exitDx=0;exitDy=0;entryX=0;entryY=0.5;entryDx=0;entryDy=0;fontSize=14;" parent="1" source="254" target="257" edge="1">
          <mxGeometry relative="1" as="geometry">
            <mxPoint x="317" y="850" as="targetPoint" />
            <Array as="points">
              <mxPoint x="237" y="790" />
            </Array>
          </mxGeometry>
        </mxCell>
        <mxCell id="254" value="4.得到厂商Token" style="rounded=0;whiteSpace=wrap;html=1;fontColor=#333333;fontSize=14;fillColor=#00A4FF;strokeColor=#00A4FF;" parent="1" vertex="1">
          <mxGeometry x="177" y="680" width="120" height="60" as="geometry" />
        </mxCell>
        <mxCell id="255" value="否" style="text;html=1;align=center;verticalAlign=middle;resizable=0;points=[];autosize=1;fontSize=14;" parent="1" vertex="1">
          <mxGeometry x="420" y="350" width="30" height="20" as="geometry" />
        </mxCell>
        <mxCell id="256" value="是" style="text;html=1;align=center;verticalAlign=middle;resizable=0;points=[];autosize=1;fontSize=14;" parent="1" vertex="1">
          <mxGeometry x="235" y="640" width="30" height="20" as="geometry" />
        </mxCell>
        <mxCell id="257" value="5.注册设备，获取TPNS Token" style="rounded=0;whiteSpace=wrap;html=1;fontColor=#333333;fontSize=14;fillColor=#00A4FF;strokeColor=#00A4FF;" parent="1" vertex="1">
          <mxGeometry x="527" y="760" width="120" height="60" as="geometry" />
        </mxCell>
        <mxCell id="258" value="否" style="text;html=1;align=center;verticalAlign=middle;resizable=0;points=[];autosize=1;fontSize=14;" parent="1" vertex="1">
          <mxGeometry x="397" y="570" width="30" height="20" as="geometry" />
        </mxCell>
        <mxCell id="-nzgm7WKdkM6JQM_r52S-259" value="&lt;h1 style=&quot;font-size: 14px;&quot;&gt;备注&lt;/h1&gt;&lt;p style=&quot;font-family: helvetica; font-size: 14px;&quot;&gt;1. 步骤6对应的回调方法为:&amp;nbsp;&amp;nbsp;XGIOperateCallback-&amp;gt;onSuccess&lt;/p&gt;&lt;p style=&quot;font-family: helvetica; font-size: 14px;&quot;&gt;2. 步骤7对应的回调方法为:&amp;nbsp; XGIOperrateCallback-&amp;gt;onFail&lt;/p&gt;&lt;p style=&quot;font-size: 14px;&quot;&gt;&lt;br style=&quot;font-size: 14px;&quot;&gt;&lt;/p&gt;" style="text;html=1;strokeColor=#82b366;fillColor=#d5e8d4;spacing=5;spacingTop=-20;whiteSpace=wrap;overflow=hidden;rounded=0;fontSize=14;" parent="1" vertex="1">
          <mxGeometry x="182" y="1050" width="540" height="120" as="geometry" />
        </mxCell>
      </root>
    </mxGraphModel>
  </diagram>
</mxfile>
